<svg width="451" height="451" viewBox="0 0 451 451" fill="none" xmlns="http://www.w3.org/2000/svg">
<circle cx="225.5" cy="225.5" r="203.5" fill="#DFDFDF" stroke="black" stroke-width="44"/>
<circle cx="12.5" cy="12.5" r="12.5" transform="matrix(-1 0 0 1 237 60)" fill="black"/>
<circle cx="305.5" cy="97.5" r="12.5" fill="black"/>
<circle cx="12.5" cy="12.5" r="12.5" transform="matrix(-1 0 0 1 157 85)" fill="black"/>
<circle cx="363.5" cy="181.5" r="12.5" fill="black"/>
<circle cx="12.5" cy="12.5" r="12.5" transform="matrix(-1 0 0 1 103 169)" fill="black"/>
<circle cx="361.5" cy="281.5" r="12.5" fill="black"/>
<circle cx="12.5" cy="12.5" r="12.5" transform="matrix(-1 0 0 1 103 269)" fill="black"/>
<circle cx="305.5" cy="353.5" r="12.5" fill="black"/>
<circle cx="12.5" cy="12.5" r="12.5" transform="matrix(-1 0 0 1 157 341)" fill="black"/>
<circle cx="12.5" cy="12.5" r="12.5" transform="matrix(-1 0 0 1 237 366)" fill="black"/>
<rect x="198" y="200" width="52" height="52" rx="10" fill="black"/>
<path d="M226 248V87.5" stroke="black" stroke-width="4"/>
</svg>
