<svg width="451" height="451" viewBox="0 0 451 451" fill="none" xmlns="http://www.w3.org/2000/svg">
<circle cx="225.5" cy="225.5" r="203.5" fill="#DFDFDF" stroke="black" stroke-width="44"/>
<rect x="199" y="203.5" width="52" height="52" rx="10" fill="black"/>
<path d="M226 251.5V91" stroke="black" stroke-width="4"/>
<path d="M224.05 348.057C225.234 349.216 227.133 349.197 228.292 348.013L247.184 328.723C248.344 327.539 248.324 325.64 247.14 324.481C245.956 323.321 244.057 323.341 242.898 324.525L226.105 341.671L208.958 324.878C207.775 323.719 205.875 323.739 204.716 324.923C203.557 326.106 203.577 328.006 204.76 329.165L224.05 348.057ZM222.187 253.531L223.149 345.945L229.149 345.882L228.187 253.469L222.187 253.531Z" fill="black"/>
<circle cx="226.5" cy="72.5" r="12.5" fill="black"/>
<circle cx="301.5" cy="91.5" r="12.5" fill="black"/>
<circle cx="12.5" cy="12.5" r="12.5" transform="matrix(-1 0 0 1 163 79)" fill="black"/>
<circle cx="379.5" cy="225.5" r="12.5" fill="black"/>
<circle cx="12.5" cy="12.5" r="12.5" transform="matrix(-1 0 0 1 85 213)" fill="black"/>
<circle cx="355.5" cy="150.5" r="12.5" fill="black"/>
<circle cx="12.5" cy="12.5" r="12.5" transform="matrix(-1 0 0 1 109 138)" fill="black"/>
<circle cx="355.5" cy="300.5" r="12.5" fill="black"/>
<circle cx="12.5" cy="12.5" r="12.5" transform="matrix(-1 0 0 1 109 288)" fill="black"/>
<circle cx="301.5" cy="353.5" r="12.5" fill="black"/>
<circle cx="12.5" cy="12.5" r="12.5" transform="matrix(-1 0 0 1 163 341)" fill="black"/>
<circle cx="226.5" cy="378.5" r="12.5" fill="black"/>
</svg>
